<svg width="45" height="45" viewBox="0 0 45 45" fill="none" xmlns="http://www.w3.org/2000/svg">
<path d="M35.9712 11.3808C35.5114 8.64857 34.1585 6.15505 32.0895 4.2628C29.7905 2.15834 26.8018 1 23.6893 1C21.2842 1 18.941 1.6897 16.9338 2.98951C15.2626 4.06827 13.8744 5.52724 12.8929 7.24264C12.4684 7.16306 12.0263 7.11885 11.5842 7.11885C7.82624 7.11885 4.76681 10.1783 4.76681 13.9362C4.76681 14.4226 4.81986 14.8912 4.90829 15.351C2.47666 17.1195 1 19.9667 1 22.9996C1 25.4489 1.91075 27.8275 3.5731 29.7109C5.27966 31.6385 7.53444 32.7791 9.93954 32.9118C9.96607 32.9118 9.98376 32.9118 10.0103 32.9118H17.6146C18.2778 32.9118 18.8083 32.3812 18.8083 31.7181C18.8083 31.0549 18.2778 30.5243 17.6146 30.5243H10.0457C6.42916 30.3033 3.38742 26.8636 3.38742 22.9907C3.38742 20.4884 4.73144 18.154 6.8978 16.8896C7.40181 16.5978 7.61402 15.9877 7.41949 15.4394C7.24265 14.9619 7.15423 14.4579 7.15423 13.9186C7.15423 11.4781 9.14374 9.48858 11.5842 9.48858C12.1059 9.48858 12.6188 9.577 13.0962 9.75385C13.6798 9.96606 14.3253 9.7008 14.5906 9.14373C16.2441 5.63335 19.8164 3.36973 23.6981 3.36973C28.9151 3.36973 33.2213 7.27801 33.7164 12.4596C33.7695 12.999 34.1762 13.4322 34.7068 13.5207C38.6416 14.1927 41.6126 17.8268 41.6126 21.9739C41.6126 26.3685 38.1553 30.1883 33.8933 30.5155H27.3765C26.7133 30.5155 26.1828 31.046 26.1828 31.7092C26.1828 32.3724 26.7133 32.9029 27.3765 32.9029H33.9375C33.964 32.9029 33.9905 32.9029 34.0259 32.9029C36.7228 32.7084 39.2429 31.4705 41.1174 29.4014C42.9831 27.35 44 24.715 44 21.9739C43.9912 17.0134 40.6046 12.6011 35.9712 11.3808Z" fill="white"/>
<path d="M15.3422 36.6146C14.8735 37.0833 14.8735 37.8349 15.3422 38.3035L21.6644 44.6257C21.8855 44.8468 22.1949 44.9794 22.5044 44.9794C22.8139 44.9794 23.1234 44.8556 23.3444 44.6257L29.6667 38.3035C30.1353 37.8349 30.1353 37.0833 29.6667 36.6146C29.4368 36.3847 29.1273 36.2609 28.8267 36.2609C28.526 36.2609 28.2165 36.3759 27.9866 36.6146L23.6981 40.9031L23.6981 21.1937C23.6981 20.5305 23.1676 20 22.5044 20C21.8413 20 21.3107 20.5305 21.3107 21.1937L21.3107 40.9031L17.0222 36.6146C16.5624 36.146 15.8108 36.146 15.3422 36.6146Z" fill="white"/>
</svg>
