<svg width="45" height="45" viewBox="0 0 45 45" fill="none" xmlns="http://www.w3.org/2000/svg">
<path d="M40.8292 20.2092H25.7906V5.17054C25.7906 4.48546 24.8604 3 22.9999 3C21.1395 3 20.2092 4.48555 20.2092 5.17054V20.2093H5.17054C4.48554 20.2092 3 21.1395 3 22.9998C3 24.8602 4.48554 25.7906 5.17054 25.7906H20.2093V40.8293C20.2093 41.5142 21.1395 42.9999 23 42.9999C24.8605 42.9999 25.7907 41.5142 25.7907 40.8293V25.7906H40.8295C41.5144 25.7906 43 24.8604 43 22.9998C43 21.1393 41.5142 20.2092 40.8292 20.2092Z" fill="white"/>
</svg>
