<svg width="45" height="45" viewBox="0 0 45 45" fill="none" xmlns="http://www.w3.org/2000/svg">
<path d="M42.5056 5.1609C42.176 4.83143 41.7852 4.66615 41.3337 4.66615C40.8824 4.66615 40.4922 4.83143 40.1619 5.1609L36.7767 8.52077C34.9191 6.76709 32.7921 5.40827 30.3964 4.44495C28.001 3.48155 25.535 2.99994 23.0002 2.99994C18.2256 2.99994 14.0592 4.44505 10.5 7.3359C6.94074 10.2264 4.59708 13.9977 3.46858 18.6508V18.833C3.46858 19.0587 3.55095 19.2541 3.71595 19.4189C3.88096 19.5839 4.07616 19.6662 4.30182 19.6662H9.48406C9.86615 19.6662 10.1264 19.4665 10.2654 19.0674C10.9945 17.3314 11.4544 16.3158 11.6456 16.0206C12.8607 14.0414 14.4753 12.4875 16.4893 11.359C18.5035 10.2306 20.6736 9.66615 22.9998 9.66615C26.4897 9.66615 29.5191 10.8555 32.0888 13.234L28.4944 16.8276C28.1654 17.1575 28 17.5483 28 17.9998C28 18.4511 28.1653 18.8418 28.4944 19.1716C28.8247 19.5015 29.2155 19.6663 29.6669 19.6663H41.3337C41.7851 19.6663 42.1759 19.5015 42.5056 19.1716C42.8352 18.8418 43 18.4512 43 17.9998V6.33282C43 5.8814 42.8362 5.49091 42.5056 5.1609Z" fill="white"/>
<path d="M41.5154 26.3334H36.5154C36.1334 26.3334 35.873 26.5329 35.7344 26.9323C35.0056 28.6685 34.5452 29.6836 34.3545 29.9789C33.1389 31.9576 31.5243 33.5121 29.5108 34.6405C27.4965 35.7693 25.3265 36.3331 23.0001 36.3331C21.3162 36.3331 19.6928 36.0208 18.1305 35.396C16.568 34.7705 15.1702 33.8849 13.9377 32.739L17.5056 29.1714C17.8353 28.8418 18.0003 28.4507 18.0003 27.9996C18.0003 27.5482 17.8353 27.1571 17.5056 26.8277C17.1757 26.4975 16.7852 26.3323 16.3338 26.3323H4.66685C4.21515 26.3323 3.82448 26.4975 3.49465 26.8277C3.16482 27.1572 3 27.5483 3 27.9996L3 39.6666C3 40.1176 3.16482 40.5087 3.49474 40.8384C3.82485 41.1677 4.21552 41.3335 4.66694 41.3335C5.11826 41.3335 5.50875 41.1678 5.83876 40.8384L9.19808 37.4787C11.0558 39.2492 13.1697 40.6124 15.5396 41.5672C17.9094 42.5224 20.3617 42.9994 22.8962 42.9994C27.6535 42.9994 31.8027 41.5541 35.3443 38.6636C38.886 35.7732 41.2124 32.0011 42.324 27.3485C42.3414 27.3138 42.3496 27.253 42.3496 27.1665C42.3496 26.9405 42.2669 26.7458 42.102 26.5803C41.9369 26.4162 41.7414 26.3334 41.5154 26.3334Z" fill="white"/>
</svg>
