<svg width="45" height="45" viewBox="0 0 45 45" fill="none" xmlns="http://www.w3.org/2000/svg">
<path d="M35.9712 13.3808C35.5114 10.6486 34.1585 8.15505 32.0895 6.2628C29.7905 4.15834 26.8018 3 23.6893 3C21.2842 3 18.941 3.6897 16.9338 4.98951C15.2626 6.06827 13.8744 7.52724 12.8929 9.24264C12.4684 9.16306 12.0263 9.11885 11.5842 9.11885C7.82624 9.11885 4.76681 12.1783 4.76681 15.9362C4.76681 16.4226 4.81986 16.8912 4.90829 17.351C2.47666 19.1195 1 21.9667 1 24.9996C1 27.4489 1.91075 29.8275 3.5731 31.7109C5.27966 33.6385 7.53444 34.7791 9.93954 34.9118C9.96607 34.9118 9.98376 34.9118 10.0103 34.9118H17.6146C18.2778 34.9118 18.8083 34.3812 18.8083 33.7181C18.8083 33.0549 18.2778 32.5243 17.6146 32.5243H10.0457C6.42916 32.3033 3.38742 28.8636 3.38742 24.9907C3.38742 22.4884 4.73144 20.154 6.8978 18.8896C7.40181 18.5978 7.61402 17.9877 7.41949 17.4394C7.24265 16.9619 7.15423 16.4579 7.15423 15.9186C7.15423 13.4781 9.14374 11.4886 11.5842 11.4886C12.1059 11.4886 12.6188 11.577 13.0962 11.7539C13.6798 11.9661 14.3253 11.7008 14.5906 11.1437C16.2441 7.63335 19.8164 5.36973 23.6981 5.36973C28.9151 5.36973 33.2213 9.27801 33.7164 14.4596C33.7695 14.999 34.1762 15.4322 34.7068 15.5207C38.6416 16.1927 41.6126 19.8268 41.6126 23.9739C41.6126 28.3685 38.1553 32.1883 33.8933 32.5155H27.3765C26.7133 32.5155 26.1828 33.046 26.1828 33.7092C26.1828 34.3724 26.7133 34.9029 27.3765 34.9029H33.9375C33.964 34.9029 33.9905 34.9029 34.0259 34.9029C36.7228 34.7084 39.2429 33.4705 41.1174 31.4014C42.9831 29.35 44 26.715 44 23.9739C43.9912 19.0134 40.6046 14.6011 35.9712 13.3808Z" fill="white"/>
<path d="M29.6667 26.1314C30.1353 25.6628 30.1353 24.9112 29.6667 24.4425L23.3444 18.1203C23.1234 17.8992 22.8139 17.7666 22.5044 17.7666C22.1949 17.7666 21.8855 17.8904 21.6644 18.1203L15.3422 24.4425C14.8735 24.9112 14.8735 25.6628 15.3422 26.1314C15.5721 26.3613 15.8816 26.4851 16.1822 26.4851C16.4828 26.4851 16.7923 26.3701 17.0222 26.1314L21.3107 21.8429V41.5523C21.3107 42.2155 21.8413 42.746 22.5044 42.746C23.1676 42.746 23.6981 42.2155 23.6981 41.5523V21.8429L27.9866 26.1314C28.4464 26.6 29.198 26.6 29.6667 26.1314Z" fill="white"/>
</svg>
